<?xml version="1.0" standalone="no"?>
<!DOCTYPE svg PUBLIC "-//W3C//DTD SVG 20010904//EN"
 "http://www.w3.org/TR/2001/REC-SVG-20010904/DTD/svg10.dtd">
<svg version="1.0" xmlns="http://www.w3.org/2000/svg"
 width="640.000000pt" height="640.000000pt" viewBox="0 0 640.000000 640.000000"
 preserveAspectRatio="xMidYMid meet">
<metadata>
Created by potrace 1.11, written by Peter Selinger 2001-2013
</metadata>
<g transform="translate(0.000000,640.000000) scale(0.100000,-0.100000)"
fill="#000000" stroke="none">
<path d="M2150 6389 c-329 -38 -708 -170 -990 -344 -295 -183 -578 -458 -766
-745 -206 -315 -344 -695 -383 -1062 -14 -125 -14 -411 0 -536 39 -360 186
-770 385 -1067 406 -609 1025 -993 1754 -1086 122 -16 437 -16 560 -1 461 59
879 233 1233 515 l89 70 1056 -1055 c582 -581 1067 -1061 1079 -1067 12 -6 44
-11 71 -11 90 0 162 72 162 162 0 27 -5 59 -11 71 -6 12 -486 498 -1067 1079
l-1055 1057 57 71 c288 356 469 785 528 1250 15 123 15 438 -1 560 -105 824
-593 1521 -1320 1889 -263 133 -504 208 -794 246 -128 16 -457 19 -587 4z
m580 -345 c217 -31 451 -104 648 -203 46 -23 80 -46 77 -51 -3 -5 0 -12 6 -16
8 -4 9 -3 5 4 -9 15 -1 15 25 1 11 -5 16 -15 13 -21 -4 -7 -3 -8 4 -4 14 9 55
-12 47 -24 -3 -5 0 -12 6 -16 8 -5 9 -3 4 6 -5 8 -3 11 6 8 8 -3 14 -10 14
-15 0 -6 4 -15 9 -20 5 -5 6 -2 1 6 -5 9 -3 12 6 9 8 -3 14 -10 14 -15 0 -6 4
-15 9 -20 5 -5 6 -2 1 6 -5 9 -3 12 6 9 8 -3 14 -10 14 -15 0 -6 4 -15 9 -20
5 -5 6 -3 2 5 -4 6 -3 12 2 12 12 0 33 -25 27 -32 -3 -3 3 -11 12 -19 16 -13
17 -12 4 4 -7 9 -9 17 -4 17 13 0 45 -35 38 -42 -3 -3 3 -11 12 -19 16 -13 17
-12 4 4 -7 9 -9 17 -4 17 13 0 45 -35 38 -42 -3 -2 7 -15 22 -29 25 -22 26
-22 9 -1 -11 12 -15 22 -10 22 11 0 204 -192 204 -204 0 -4 -8 -2 -17 5 -15
11 -14 9 1 -9 11 -12 21 -20 24 -17 7 6 42 -25 42 -37 0 -5 -6 -6 -12 -2 -9 5
-8 2 1 -9 8 -10 16 -15 19 -12 7 6 32 -15 32 -27 0 -5 -6 -6 -12 -2 -8 4 -10
3 -5 -2 5 -5 12 -9 15 -9 13 0 32 -16 32 -26 0 -6 -6 -7 -12 -3 -8 4 -10 3 -5
-2 5 -5 14 -9 20 -9 5 0 12 -6 15 -14 3 -9 0 -11 -9 -6 -8 5 -11 4 -6 -1 5 -5
14 -9 20 -9 7 0 11 -8 11 -17 -1 -10 3 -16 10 -15 6 1 10 -6 10 -15 -1 -10 3
-16 8 -15 6 1 13 -4 16 -12 3 -9 0 -11 -8 -6 -9 5 -11 4 -6 -4 4 -6 11 -9 16
-6 5 3 14 -3 19 -14 14 -26 14 -34 -1 -25 -7 4 -8 3 -4 -5 4 -6 11 -9 16 -6 5
3 34 -43 63 -102 248 -496 293 -1054 126 -1580 -45 -140 -127 -326 -140 -317
-5 3 -6 -3 -2 -12 4 -12 3 -15 -5 -10 -7 4 -10 2 -7 -6 7 -17 -83 -170 -95
-163 -5 3 -12 0 -16 -6 -5 -8 -3 -9 6 -4 8 5 11 3 8 -6 -3 -8 -10 -14 -16 -14
-5 0 -14 -4 -19 -9 -5 -5 -3 -6 5 -2 16 9 16 -10 0 -21 -7 -4 -16 -8 -20 -8
-3 0 -10 -4 -15 -9 -5 -5 -2 -6 6 -1 9 5 12 3 9 -6 -3 -8 -10 -14 -16 -14 -6
0 -17 -7 -24 -15 -11 -12 -11 -12 5 -1 25 19 21 -2 -5 -25 -12 -10 -18 -13
-14 -6 10 18 1 15 -15 -5 -10 -11 -10 -14 -1 -9 22 13 12 -10 -15 -35 -15 -13
-21 -16 -14 -6 19 24 8 21 -15 -5 -10 -12 -13 -18 -6 -14 33 20 2 -19 -95
-116 -94 -94 -139 -131 -118 -98 11 18 -1 11 -21 -12 -19 -22 -19 -23 1 -8 15
11 14 7 -4 -13 -25 -27 -48 -37 -35 -14 5 8 2 7 -9 -2 -10 -8 -15 -16 -12 -19
6 -7 -15 -32 -27 -32 -5 0 -6 6 -2 13 4 7 3 9 -2 4 -5 -5 -9 -14 -9 -20 0 -5
-6 -12 -14 -15 -9 -3 -11 0 -6 9 5 8 4 11 -1 6 -5 -5 -8 -12 -7 -15 2 -10 -18
-32 -29 -32 -5 0 -6 6 -2 13 4 7 3 9 -2 4 -5 -5 -9 -14 -9 -20 0 -5 -6 -12
-14 -15 -9 -3 -11 0 -6 8 5 9 4 11 -4 6 -6 -4 -9 -11 -6 -16 7 -12 -32 -33
-45 -25 -6 4 -9 1 -8 -5 4 -15 -112 -82 -130 -75 -8 3 -10 0 -6 -7 5 -8 2 -9
-10 -5 -9 4 -15 3 -12 -2 7 -11 -22 -23 -36 -14 -6 3 -8 1 -5 -4 15 -24 -303
-137 -486 -172 -388 -74 -774 -42 -1146 95 -120 45 -356 165 -356 181 0 6 -4
15 -9 20 -5 5 -6 2 -1 -6 5 -9 3 -12 -6 -9 -8 3 -14 10 -14 15 0 6 -4 15 -9
20 -5 5 -6 2 -1 -6 5 -9 3 -12 -6 -9 -8 3 -14 10 -14 15 0 6 -4 15 -9 20 -5 5
-6 2 -1 -6 5 -9 3 -12 -6 -9 -8 3 -14 10 -14 15 0 6 -4 15 -9 20 -5 5 -6 2 -1
-6 5 -9 3 -12 -6 -9 -8 3 -14 10 -14 15 0 6 -4 15 -9 20 -5 5 -6 3 -2 -4 4 -7
3 -13 -2 -13 -13 0 -33 25 -26 32 3 3 0 9 -7 14 -8 4 -10 3 -5 -4 4 -7 3 -12
-2 -12 -12 0 -33 25 -27 32 3 3 -2 11 -12 19 -11 9 -14 10 -9 2 4 -7 3 -13 -2
-13 -12 0 -43 35 -37 42 3 2 -7 15 -22 29 -25 22 -26 22 -9 2 11 -13 15 -23
10 -23 -11 0 -194 182 -194 194 0 4 7 3 15 -4 26 -22 16 -4 -12 21 -21 18 -24
19 -13 4 8 -11 0 -7 -18 9 -33 31 -45 59 -14 35 15 -13 16 -12 3 4 -8 9 -16
15 -19 12 -7 -7 -42 25 -42 38 0 5 8 3 18 -4 15 -11 15 -11 4 1 -7 8 -18 15
-24 15 -6 0 -13 6 -16 14 -3 9 0 11 9 5 12 -7 12 -5 0 9 -16 20 -26 23 -15 5
5 -9 2 -9 -9 1 -20 16 -23 36 -4 25 7 -4 9 -3 4 2 -5 5 -14 9 -19 9 -6 0 -13
6 -16 14 -3 9 0 11 9 6 8 -5 11 -4 6 1 -5 5 -14 9 -19 9 -6 0 -13 6 -16 14 -3
9 0 11 8 6 9 -5 11 -4 6 4 -4 6 -11 9 -16 6 -12 -8 -33 33 -24 47 4 6 3 8 -4
4 -20 -12 -142 233 -197 397 -141 423 -146 888 -14 1305 42 132 89 243 100
236 5 -3 6 1 3 9 -7 19 44 120 56 112 5 -3 8 0 5 7 -7 19 53 120 67 112 7 -4
8 -3 4 5 -9 14 41 94 53 86 5 -2 8 3 7 12 0 10 4 18 11 18 6 0 15 4 20 9 5 5
3 6 -4 2 -7 -4 -13 -3 -13 2 0 12 25 33 32 27 3 -3 11 3 19 12 13 16 12 17 -3
4 -10 -7 -18 -9 -18 -4 0 13 35 45 42 38 3 -3 11 3 19 12 13 16 12 17 -3 4
-10 -7 -18 -9 -18 -4 0 12 45 55 51 48 3 -3 19 10 35 27 16 18 19 24 7 14 -48
-40 -20 2 44 66 66 66 110 95 62 41 -15 -19 -11 -16 13 6 21 19 35 37 33 40
-7 6 36 51 48 51 5 0 3 -8 -4 -17 -13 -16 -12 -17 4 -4 9 8 15 16 12 19 -6 7
25 42 37 42 5 0 6 -6 2 -12 -4 -7 -4 -10 0 -6 4 3 8 10 8 15 0 12 19 33 30 33
5 0 6 -6 2 -12 -4 -8 -3 -10 2 -5 5 5 9 14 9 20 0 5 6 12 14 15 9 3 11 0 6 -8
-5 -9 -4 -11 4 -6 6 4 9 11 6 16 -8 13 71 64 85 55 6 -3 9 -1 8 6 -2 6 3 14
11 17 9 3 11 0 6 -8 -5 -9 -4 -11 4 -6 6 4 9 11 6 16 -8 12 73 53 87 44 7 -4
8 -3 4 4 -8 14 90 66 111 58 8 -3 12 -2 9 3 -7 11 104 58 236 100 292 93 617
119 928 75z"/>
<path d="M2263 6043 c15 -2 37 -2 50 0 12 2 0 4 -28 4 -27 0 -38 -2 -22 -4z"/>
<path d="M2553 6043 c15 -2 37 -2 50 0 12 2 0 4 -28 4 -27 0 -38 -2 -22 -4z"/>
<path d="M2163 6033 c9 -2 25 -2 35 0 9 3 1 5 -18 5 -19 0 -27 -2 -17 -5z"/>
<path d="M2673 6033 c9 -2 23 -2 30 0 6 3 -1 5 -18 5 -16 0 -22 -2 -12 -5z"/>
<path d="M2098 6023 c7 -3 16 -2 19 1 4 3 -2 6 -13 5 -11 0 -14 -3 -6 -6z"/>
<path d="M2748 6023 c6 -2 18 -2 25 0 6 3 1 5 -13 5 -14 0 -19 -2 -12 -5z"/>
<path d="M2038 6013 c7 -3 16 -2 19 1 4 3 -2 6 -13 5 -11 0 -14 -3 -6 -6z"/>
<path d="M2808 6013 c7 -3 16 -2 19 1 4 3 -2 6 -13 5 -11 0 -14 -3 -6 -6z"/>
<path d="M1988 6003 c7 -3 16 -2 19 1 4 3 -2 6 -13 5 -11 0 -14 -3 -6 -6z"/>
<path d="M2858 6003 c7 -3 16 -2 19 1 4 3 -2 6 -13 5 -11 0 -14 -3 -6 -6z"/>
<path d="M4461 4414 c0 -11 3 -14 6 -6 3 7 2 16 -1 19 -3 4 -6 -2 -5 -13z"/>
<path d="M391 4404 c0 -11 3 -14 6 -6 3 7 2 16 -1 19 -3 4 -6 -2 -5 -13z"/>
<path d="M4471 4364 c0 -11 3 -14 6 -6 3 7 2 16 -1 19 -3 4 -6 -2 -5 -13z"/>
<path d="M381 4354 c0 -11 3 -14 6 -6 3 7 2 16 -1 19 -3 4 -6 -2 -5 -13z"/>
<path d="M4482 4310 c0 -14 2 -19 5 -12 2 6 2 18 0 25 -3 6 -5 1 -5 -13z"/>
<path d="M371 4294 c0 -11 3 -14 6 -6 3 7 2 16 -1 19 -3 4 -6 -2 -5 -13z"/>
<path d="M4492 4240 c0 -14 2 -19 5 -12 2 6 2 18 0 25 -3 6 -5 1 -5 -13z"/>
<path d="M362 4225 c0 -16 2 -22 5 -12 2 9 2 23 0 30 -3 6 -5 -1 -5 -18z"/>
<path d="M4502 4150 c0 -19 2 -27 5 -17 2 9 2 25 0 35 -3 9 -5 1 -5 -18z"/>
<path d="M353 4110 c0 -25 2 -35 4 -22 2 12 2 32 0 45 -2 12 -4 2 -4 -23z"/>
<path d="M4513 3970 c0 -36 2 -50 4 -32 2 17 2 47 0 65 -2 17 -4 3 -4 -33z"/>
<path d="M353 3825 c0 -27 2 -38 4 -22 2 15 2 37 0 50 -2 12 -4 0 -4 -28z"/>
<path d="M4503 3790 c0 -25 2 -35 4 -22 2 12 2 32 0 45 -2 12 -4 2 -4 -23z"/>
<path d="M362 3720 c0 -19 2 -27 5 -17 2 9 2 25 0 35 -3 9 -5 1 -5 -18z"/>
<path d="M4492 3695 c0 -16 2 -22 5 -12 2 9 2 23 0 30 -3 6 -5 -1 -5 -18z"/>
<path d="M371 3644 c0 -11 3 -14 6 -6 3 7 2 16 -1 19 -3 4 -6 -2 -5 -13z"/>
<path d="M4481 3624 c0 -11 3 -14 6 -6 3 7 2 16 -1 19 -3 4 -6 -2 -5 -13z"/>
<path d="M381 3584 c0 -11 3 -14 6 -6 3 7 2 16 -1 19 -3 4 -6 -2 -5 -13z"/>
<path d="M4471 3574 c0 -11 3 -14 6 -6 3 7 2 16 -1 19 -3 4 -6 -2 -5 -13z"/>
<path d="M391 3534 c0 -11 3 -14 6 -6 3 7 2 16 -1 19 -3 4 -6 -2 -5 -13z"/>
<path d="M3900 2493 l-55 -58 58 55 c53 50 62 60 54 60 -1 0 -27 -26 -57 -57z"/>
<path d="M1978 1933 c7 -3 16 -2 19 1 4 3 -2 6 -13 5 -11 0 -14 -3 -6 -6z"/>
<path d="M2868 1933 c7 -3 16 -2 19 1 4 3 -2 6 -13 5 -11 0 -14 -3 -6 -6z"/>
<path d="M2028 1923 c7 -3 16 -2 19 1 4 3 -2 6 -13 5 -11 0 -14 -3 -6 -6z"/>
<path d="M2818 1923 c6 -2 18 -2 25 0 6 3 1 5 -13 5 -14 0 -19 -2 -12 -5z"/>
<path d="M2078 1913 c6 -2 18 -2 25 0 6 3 1 5 -13 5 -14 0 -19 -2 -12 -5z"/>
<path d="M2768 1913 c7 -3 16 -2 19 1 4 3 -2 6 -13 5 -11 0 -14 -3 -6 -6z"/>
<path d="M2148 1903 c6 -2 18 -2 25 0 6 3 1 5 -13 5 -14 0 -19 -2 -12 -5z"/>
<path d="M2693 1903 c9 -2 23 -2 30 0 6 3 -1 5 -18 5 -16 0 -22 -2 -12 -5z"/>
<path d="M2238 1893 c12 -2 30 -2 40 0 9 3 -1 5 -23 4 -22 0 -30 -2 -17 -4z"/>
<path d="M2588 1893 c12 -2 32 -2 45 0 12 2 2 4 -23 4 -25 0 -35 -2 -22 -4z"/>
<path d="M2387 1883 c18 -2 50 -2 70 0 21 2 7 4 -32 4 -38 0 -55 -2 -38 -4z"/>
</g>
</svg>
